<svg id="svg" xmlns="http://www.w3.org/2000/svg" xmlns:xlink="http://www.w3.org/1999/xlink" width="400" height="346.25" viewBox="0, 0, 400,346.25"><g id="svgg"><path id="path0" d="M333.318 0.387 C 333.651 1.010,335.861 3.924,337.357 5.715 C 345.618 15.599,342.778 37.750,331.897 48.308 C 316.005 63.728,291.191 73.767,248.646 81.990 C 224.697 86.618,208.296 91.789,192.488 99.695 C 175.045 108.419,167.083 116.858,162.225 131.771 C 155.452 152.565,160.093 167.796,173.906 170.097 L 174.792 170.245 174.792 169.437 C 174.792 168.199,174.274 166.477,173.020 163.541 C 169.557 155.429,170.479 143.974,175.411 133.854 C 178.698 127.109,186.014 118.191,190.313 115.690 C 201.464 109.201,213.211 105.843,239.375 101.666 C 279.564 95.250,303.474 87.973,321.146 76.778 C 322.635 75.834,326.620 73.283,330.000 71.109 C 335.958 67.277,339.566 65.114,342.221 63.782 L 343.504 63.138 342.806 64.746 C 338.597 74.444,330.783 82.613,318.421 90.238 C 313.709 93.144,307.855 96.242,293.542 103.404 C 275.012 112.674,271.969 113.998,258.750 118.543 C 247.044 122.568,242.428 124.537,238.333 127.251 C 235.238 129.303,233.447 131.406,234.330 131.951 C 234.649 132.149,261.958 126.067,272.043 123.553 C 314.168 113.052,338.570 101.080,351.901 84.375 C 363.336 70.046,366.785 49.260,359.245 40.119 C 357.795 38.362,357.884 38.310,357.097 41.363 C 354.942 49.730,352.498 54.236,349.199 55.924 C 347.927 56.575,348.089 56.014,351.667 47.396 C 357.215 34.032,358.451 28.203,357.101 21.771 C 355.298 13.184,347.640 5.675,335.865 0.949 C 333.197 -0.122,333.025 -0.160,333.318 0.387 M360.750 30.469 C 361.098 31.073,363.126 33.813,364.875 36.042 C 370.967 43.805,372.385 47.224,372.389 54.167 C 372.396 65.452,367.073 76.219,355.872 87.575 C 344.052 99.558,329.731 107.628,299.792 119.175 C 291.634 122.321,291.507 122.387,293.958 122.195 C 337.965 118.762,368.094 109.394,382.531 94.657 C 399.305 77.533,404.981 55.270,395.596 43.409 C 389.998 36.332,379.580 31.570,367.188 30.421 C 363.862 30.113,360.560 30.137,360.750 30.469 M313.021 87.211 C 303.647 93.072,292.355 97.270,265.729 104.792 C 243.148 111.171,233.121 114.588,223.750 119.098 C 204.143 128.534,194.684 140.312,193.018 157.366 C 192.884 158.744,192.900 158.818,193.487 159.450 C 193.822 159.810,194.528 160.723,195.056 161.478 C 196.167 163.068,196.791 163.542,197.770 163.542 C 198.767 163.542,198.792 163.429,198.054 162.241 C 197.037 160.603,197.112 158.390,198.312 154.583 C 198.799 153.036,199.251 151.180,199.316 150.459 L 199.434 149.146 201.436 147.360 C 216.029 134.338,233.256 125.189,273.403 109.139 C 293.638 101.050,304.836 95.403,314.205 88.564 C 315.565 87.571,316.307 86.654,315.999 86.347 C 315.550 85.897,314.751 86.129,313.021 87.211 M147.708 147.721 C 142.800 148.458,132.774 149.373,119.271 150.315 C 80.045 153.053,66.131 156.435,63.329 163.914 C 62.063 167.294,63.238 169.479,69.900 176.142 C 77.190 183.432,78.551 185.750,85.627 202.917 C 92.742 220.177,99.934 236.934,105.524 249.271 C 116.075 272.557,119.110 281.665,120.935 295.525 C 121.838 302.374,122.358 304.561,123.707 307.188 C 127.057 313.705,138.843 317.926,158.438 319.625 C 162.351 319.965,178.684 319.966,183.021 319.627 C 198.185 318.442,210.584 316.414,220.000 313.579 L 221.979 312.983 223.093 310.919 C 226.219 305.121,228.290 299.495,228.850 295.275 L 228.993 294.196 230.382 294.063 C 234.989 293.620,238.544 291.940,241.725 288.701 L 243.345 287.051 245.891 287.679 C 249.263 288.510,253.855 289.223,260.833 290.000 C 274.761 291.549,279.407 292.390,284.145 294.218 C 286.647 295.184,286.615 295.283,283.703 295.608 C 279.480 296.079,276.329 295.906,262.813 294.464 C 258.374 293.990,251.806 294.135,249.479 294.758 C 246.879 295.454,241.949 298.125,243.264 298.125 C 243.380 298.125,244.357 298.308,245.436 298.531 C 246.514 298.754,250.302 299.370,253.854 299.899 C 262.346 301.165,268.542 302.441,268.542 302.923 C 268.542 303.134,266.276 303.650,263.996 303.957 C 262.996 304.092,258.109 304.219,252.434 304.257 C 240.595 304.337,238.517 304.580,235.156 306.276 C 233.765 306.979,233.717 307.108,234.651 307.659 C 237.265 309.201,240.700 309.594,247.084 309.079 C 254.738 308.461,257.747 308.402,257.576 308.874 C 256.775 311.082,254.875 311.686,247.500 312.077 C 239.373 312.508,242.719 313.069,252.083 312.846 C 279.425 312.194,306.408 305.379,321.563 295.296 C 326.010 292.337,326.163 291.881,323.854 288.446 C 322.832 286.926,322.107 285.323,322.337 285.093 C 322.905 284.526,326.863 287.902,327.671 289.644 C 329.817 294.264,328.734 298.311,324.605 301.097 C 310.382 310.695,246.406 321.859,190.000 324.586 C 183.874 324.882,160.518 325.407,158.333 325.297 C 157.359 325.248,154.313 325.110,151.563 324.991 C 98.139 322.662,31.812 311.077,17.522 301.577 C 11.582 297.628,12.122 289.480,18.551 286.053 C 20.255 285.146,20.116 286.388,18.226 288.962 C 16.298 291.590,16.320 292.657,18.335 294.211 C 32.276 304.962,61.625 312.721,90.417 313.267 C 100.486 313.458,102.867 312.958,94.063 312.502 C 87.158 312.145,85.292 311.523,84.517 309.323 C 84.339 308.820,86.124 308.835,93.045 309.395 C 101.112 310.047,104.592 309.761,107.204 308.230 C 108.408 307.525,108.388 307.468,106.615 306.612 C 103.395 305.056,100.848 304.761,90.729 304.773 C 80.754 304.784,76.270 304.465,73.958 303.576 L 73.438 303.376 74.016 303.149 C 75.935 302.397,80.549 301.490,87.917 300.415 C 98.908 298.811,99.424 298.675,98.106 297.714 C 94.086 294.782,88.338 293.983,78.646 295.006 C 68.507 296.077,66.356 296.248,63.021 296.249 C 59.633 296.250,56.042 295.930,56.042 295.627 C 56.042 295.291,59.656 293.987,62.677 293.234 C 66.638 292.246,70.096 291.728,80.833 290.514 C 89.382 289.548,98.300 288.019,98.903 287.417 C 99.299 287.020,94.813 285.259,91.900 284.667 C 85.849 283.439,81.006 283.762,66.667 286.354 C 57.177 288.069,55.711 288.229,49.542 288.229 C 43.189 288.229,42.823 288.116,45.667 287.033 C 56.835 282.780,70.605 280.671,94.998 279.478 C 98.492 279.307,102.031 279.167,102.863 279.167 L 104.375 279.167 104.375 278.362 C 104.375 270.902,97.592 267.299,84.479 267.793 C 57.845 268.796,23.452 275.444,10.000 282.189 C 4.320 285.037,0.000 290.810,0.000 295.552 C -0.000 304.478,8.352 310.518,29.167 316.645 C 56.841 324.792,61.851 325.964,80.936 328.757 C 88.358 329.844,89.065 329.997,101.875 333.300 C 108.040 334.889,113.472 335.383,130.938 335.941 C 144.709 336.381,147.965 336.602,155.625 337.618 C 160.615 338.279,167.754 338.718,167.869 338.371 C 167.929 338.192,169.156 338.124,172.361 338.123 C 177.395 338.120,179.750 337.950,186.771 337.083 C 194.133 336.173,199.656 335.799,209.792 335.522 C 230.553 334.956,233.277 334.657,244.817 331.680 C 253.553 329.425,253.496 329.437,262.971 328.029 C 278.949 325.655,285.482 324.176,305.313 318.441 C 321.841 313.661,326.739 311.897,332.148 308.773 C 343.163 302.411,345.180 293.895,337.579 285.838 C 331.533 279.428,313.159 273.943,283.438 269.677 C 267.091 267.330,260.437 268.778,258.444 275.113 C 257.159 279.198,259.244 280.488,267.708 280.844 C 277.155 281.241,287.434 283.250,295.680 286.311 C 299.477 287.720,299.287 287.813,292.604 287.813 C 286.484 287.813,285.153 287.660,274.479 285.731 C 257.983 282.751,250.890 282.824,244.584 286.041 L 243.676 286.505 244.437 285.492 C 244.856 284.935,245.920 283.448,246.802 282.188 C 251.408 275.601,252.904 274.250,259.749 270.494 C 261.778 269.381,264.797 267.726,266.458 266.816 C 284.740 256.803,301.225 242.284,307.550 230.625 C 318.051 211.267,306.360 187.917,286.167 187.917 C 279.109 187.917,275.852 191.412,272.087 203.021 C 271.021 206.310,268.254 211.250,267.479 211.250 C 267.118 211.250,267.744 208.620,269.392 203.210 C 271.964 194.766,272.706 191.021,272.708 186.494 C 272.709 183.974,272.368 183.556,269.883 183.026 C 263.626 181.692,264.642 180.476,275.104 176.774 C 282.722 174.079,284.992 171.353,283.899 166.211 C 281.963 157.098,246.267 148.115,214.795 148.820 L 209.070 148.949 207.359 150.111 C 204.459 152.081,202.830 154.159,202.287 156.582 C 202.016 157.792,201.713 157.626,205.118 158.128 C 215.276 159.626,230.643 160.727,251.736 161.469 C 259.092 161.728,259.280 161.710,256.933 160.968 C 252.084 159.436,244.642 158.255,231.146 156.874 C 223.803 156.122,218.714 155.522,216.250 155.115 L 214.479 154.823 216.458 154.908 C 217.547 154.955,220.547 155.047,223.125 155.112 C 243.605 155.634,257.557 158.246,265.437 163.033 C 266.891 163.916,266.891 163.916,264.822 165.276 C 256.402 170.810,242.470 174.142,223.333 175.199 C 221.214 175.316,218.701 175.461,217.749 175.520 C 214.951 175.696,192.418 175.625,186.979 175.422 C 184.229 175.320,175.229 175.136,166.979 175.012 C 121.048 174.324,113.568 173.917,101.154 171.428 C 87.668 168.724,82.831 165.645,84.817 161.028 C 85.061 160.463,85.298 160.000,85.345 160.000 C 85.947 160.000,87.032 160.842,88.044 162.094 C 90.495 165.127,91.680 165.189,99.792 162.712 C 108.038 160.193,114.895 159.482,139.063 158.637 C 146.735 158.369,156.197 157.831,156.376 157.652 C 156.426 157.601,156.331 156.727,155.835 152.708 C 155.452 149.603,154.646 147.974,153.194 147.368 C 152.357 147.018,152.423 147.014,147.708 147.721 M74.737 163.131 C 83.201 171.036,95.168 175.756,106.978 175.848 C 109.734 175.869,110.015 176.092,107.898 176.577 C 101.692 178.001,85.051 176.303,79.005 173.629 C 75.671 172.155,72.538 168.107,71.881 164.426 C 71.307 161.213,72.233 160.793,74.737 163.131 M83.213 177.074 C 112.457 185.646,161.021 188.167,230.313 184.711 L 232.188 184.618 230.625 185.018 C 216.951 188.524,183.492 190.423,156.875 189.204 C 143.845 188.608,132.191 187.802,120.208 186.668 C 115.453 186.219,109.922 185.703,107.917 185.524 C 89.033 183.830,82.754 181.865,80.195 176.849 L 79.799 176.073 80.368 176.240 C 80.681 176.332,81.961 176.708,83.213 177.074 M97.331 189.580 C 101.270 190.403,107.054 190.998,117.604 191.667 C 129.373 192.413,135.100 193.277,139.896 195.028 C 142.360 195.928,142.651 195.905,130.521 195.770 C 118.696 195.637,109.482 195.113,100.313 194.051 C 98.823 193.879,97.065 193.680,96.406 193.610 L 95.208 193.482 95.208 191.324 C 95.208 190.138,95.240 189.167,95.279 189.167 C 95.318 189.167,96.242 189.353,97.331 189.580 M101.042 198.438 C 102.474 198.703,106.083 199.388,109.063 199.961 C 117.688 201.621,120.006 201.798,127.604 201.379 C 132.372 201.116,134.172 201.652,135.467 203.723 L 135.906 204.425 122.588 204.313 C 115.216 204.251,108.248 204.097,106.979 203.968 C 103.544 203.620,99.466 202.978,97.708 202.510 C 96.849 202.281,96.076 202.091,95.990 202.088 C 95.904 202.086,95.833 201.090,95.833 199.875 L 95.833 197.667 97.135 197.811 C 97.852 197.891,99.609 198.172,101.042 198.438 M294.583 203.432 C 302.629 205.477,304.745 217.033,298.833 226.626 C 295.701 231.706,291.910 235.519,282.292 243.260 C 275.916 248.391,273.225 250.735,271.312 252.826 C 269.783 254.497,269.611 254.619,268.232 255.027 C 256.680 258.442,246.159 266.520,236.993 279.010 C 235.803 280.633,235.655 280.654,236.152 279.128 C 238.469 272.021,243.019 262.059,249.697 249.479 C 255.699 238.172,259.902 229.534,262.380 223.419 L 263.569 220.485 265.124 220.008 C 268.357 219.016,270.625 217.225,274.911 212.281 C 282.327 203.727,287.172 201.547,294.583 203.432 M103.103 208.018 C 105.804 208.310,109.045 208.494,119.792 208.964 C 128.460 209.343,133.369 209.997,137.026 211.257 C 139.878 212.241,139.851 212.252,134.565 212.254 C 131.873 212.255,126.721 212.371,123.116 212.511 C 111.596 212.957,105.933 212.574,101.250 211.028 C 98.798 210.219,98.750 210.175,98.750 208.717 L 98.750 207.445 99.531 207.581 C 99.961 207.655,101.568 207.851,103.103 208.018 M285.780 215.195 C 272.151 223.374,264.993 231.351,261.373 242.396 C 260.782 244.199,259.757 248.785,259.911 248.938 C 260.249 249.276,266.608 246.681,270.083 244.787 C 275.475 241.848,281.771 237.411,281.991 236.394 C 282.469 234.182,284.278 232.292,287.240 230.912 C 288.299 230.418,289.167 229.932,289.167 229.833 C 289.167 229.734,289.790 228.629,290.553 227.378 C 293.966 221.778,294.925 218.456,294.127 215.000 C 293.885 213.952,293.864 213.930,293.241 214.047 C 292.871 214.116,291.989 213.991,291.145 213.750 C 289.110 213.168,289.195 213.145,285.780 215.195 M103.092 216.449 C 107.085 217.256,112.049 217.746,122.188 218.332 C 132.861 218.950,136.198 219.249,141.094 220.027 C 142.977 220.326,143.106 220.505,141.661 220.815 C 137.827 221.637,133.882 221.715,112.305 221.391 L 102.214 221.240 101.961 220.568 C 101.823 220.198,101.512 219.403,101.271 218.800 C 100.868 217.789,100.668 216.042,100.957 216.042 C 101.025 216.042,101.986 216.225,103.092 216.449 M107.604 226.447 C 108.865 226.554,112.474 226.742,115.625 226.865 C 131.935 227.503,138.651 228.315,142.917 230.165 L 143.854 230.572 142.396 230.755 C 140.501 230.992,126.900 230.989,115.456 230.747 L 106.434 230.557 106.155 230.017 C 106.001 229.721,105.669 229.291,105.417 229.063 C 104.781 228.487,104.375 227.639,104.375 226.885 C 104.375 226.145,104.240 226.163,107.604 226.447 M120.729 236.370 C 125.237 236.657,135.103 237.482,139.271 237.921 C 140.302 238.029,141.331 238.119,141.557 238.121 C 141.947 238.125,141.945 238.141,141.512 238.444 C 138.874 240.292,132.016 240.848,121.042 240.104 C 118.578 239.937,115.250 239.798,113.646 239.795 L 110.729 239.790 110.022 238.423 C 109.633 237.671,109.027 236.767,108.675 236.415 L 108.034 235.774 111.986 235.920 C 114.159 235.999,118.094 236.202,120.729 236.370 M122.708 244.907 C 133.398 245.452,143.704 246.669,143.797 247.396 C 143.837 247.702,141.768 248.686,140.208 249.104 C 137.652 249.789,114.793 249.547,114.792 248.835 C 114.791 248.171,114.005 246.029,113.462 245.209 L 112.978 244.479 114.666 244.531 C 115.595 244.560,119.214 244.729,122.708 244.907 M119.147 254.174 C 122.008 255.070,123.883 255.230,133.750 255.417 C 144.216 255.616,145.682 255.790,148.319 257.148 C 149.818 257.919,149.624 258.011,145.679 258.398 C 137.911 259.159,130.281 259.357,124.063 258.957 C 119.073 258.637,119.234 258.683,119.120 257.532 C 119.060 256.928,118.776 256.174,118.366 255.532 C 117.832 254.696,117.507 253.740,117.760 253.753 C 117.789 253.754,118.413 253.944,119.147 254.174 M126.704 264.785 C 129.935 265.213,134.128 265.419,144.018 265.636 C 149.657 265.759,155.302 265.930,156.563 266.015 L 158.854 266.171 157.292 266.933 C 153.683 268.693,149.568 269.222,137.396 269.488 C 133.958 269.563,130.208 269.700,129.063 269.793 C 127.303 269.936,126.947 269.913,126.771 269.646 C 126.656 269.472,126.074 268.727,125.476 267.990 C 124.518 266.809,123.963 265.657,123.959 264.844 C 123.958 264.529,124.657 264.514,126.704 264.785 M130.625 274.393 C 131.484 274.507,138.328 274.693,145.833 274.806 C 153.339 274.919,159.984 275.066,160.602 275.132 L 161.724 275.252 160.706 275.855 C 156.584 278.296,146.753 279.247,132.157 278.615 L 129.040 278.480 129.126 277.891 C 129.184 277.496,128.996 276.920,128.555 276.137 C 127.466 274.207,127.706 274.004,130.625 274.393 M134.792 283.018 C 135.651 283.081,140.010 283.364,144.479 283.648 C 152.305 284.145,158.682 284.660,160.208 284.919 L 160.938 285.042 159.486 285.776 C 154.179 288.459,141.281 288.947,132.292 286.805 L 131.146 286.532 131.086 284.604 L 131.026 282.676 132.127 282.790 C 132.733 282.853,133.932 282.956,134.792 283.018 M135.938 291.656 C 137.313 291.774,141.016 292.012,144.167 292.185 C 154.899 292.772,160.293 293.344,163.719 294.259 C 165.210 294.657,165.213 294.682,163.824 295.202 C 156.595 297.907,141.099 297.310,134.010 294.054 L 132.500 293.360 132.500 292.301 C 132.500 291.312,132.531 291.249,132.969 291.342 C 133.227 291.396,134.563 291.538,135.938 291.656 M133.857 300.630 C 146.775 303.423,167.875 305.361,186.204 305.437 C 188.922 305.449,191.943 305.519,192.917 305.594 L 194.688 305.729 193.854 306.308 C 188.191 310.238,151.178 309.932,134.392 305.815 C 132.572 305.369,132.544 305.352,132.432 304.660 C 132.369 304.274,131.933 303.409,131.463 302.740 C 130.556 301.447,130.128 300.000,130.653 300.000 C 130.812 300.000,132.254 300.283,133.857 300.630 M81.667 334.042 C 81.667 334.345,89.025 337.045,93.021 338.208 C 110.988 343.440,135.394 346.236,163.229 346.251 C 172.181 346.256,179.166 346.140,201.250 345.619 C 222.132 345.127,233.101 343.399,241.112 339.337 C 242.865 338.448,242.643 338.438,236.957 339.152 C 199.713 343.833,150.741 342.445,90.597 335.005 C 81.834 333.921,81.667 333.903,81.667 334.042 " stroke="none" fill="#000000" fill-rule="evenodd"></path></g></svg>